<?xml version="1.0" encoding="UTF-8" standalone="no"?>
<!DOCTYPE svg PUBLIC "-//W3C//DTD SVG 1.1//EN"
 "http://www.w3.org/Graphics/SVG/1.1/DTD/svg11.dtd">
<!-- Generated by graphviz version 2.49.3 (0)
 -->
<!-- Pages: 1 -->
<svg width="829pt" height="548pt"
 viewBox="0.00 0.00 829.00 548.00" xmlns="http://www.w3.org/2000/svg" xmlns:xlink="http://www.w3.org/1999/xlink">
<g id="graph0" class="graph" transform="scale(1 1) rotate(0) translate(4 544)">
<polygon fill="white" stroke="transparent" points="-4,4 -4,-544 825,-544 825,4 -4,4"/>
<!-- [root] aws_autoscaling_group.example (expand) -->
<g id="node1" class="node">
<title>[root] aws_autoscaling_group.example (expand)</title>
<polygon fill="none" stroke="black" points="356.5,-324 162.5,-324 162.5,-288 356.5,-288 356.5,-324"/>
<text text-anchor="middle" x="259.5" y="-302.3" font-family="Times,serif" font-size="14.00">aws_autoscaling_group.example</text>
</g>
<!-- [root] aws_launch_configuration.example (expand) -->
<g id="node2" class="node">
<title>[root] aws_launch_configuration.example (expand)</title>
<polygon fill="none" stroke="black" points="289,-252 80,-252 80,-216 289,-216 289,-252"/>
<text text-anchor="middle" x="184.5" y="-230.3" font-family="Times,serif" font-size="14.00">aws_launch_configuration.example</text>
</g>
<!-- [root] aws_autoscaling_group.example (expand)&#45;&gt;[root] aws_launch_configuration.example (expand) -->
<g id="edge1" class="edge">
<title>[root] aws_autoscaling_group.example (expand)&#45;&gt;[root] aws_launch_configuration.example (expand)</title>
<path fill="none" stroke="black" d="M240.96,-287.7C231.7,-279.05 220.34,-268.45 210.24,-259.03"/>
<polygon fill="black" stroke="black" points="212.52,-256.37 202.83,-252.1 207.75,-261.49 212.52,-256.37"/>
</g>
<!-- [root] aws_lb_target_group.asg (expand) -->
<g id="node6" class="node">
<title>[root] aws_lb_target_group.asg (expand)</title>
<polygon fill="none" stroke="black" points="460,-252 307,-252 307,-216 460,-216 460,-252"/>
<text text-anchor="middle" x="383.5" y="-230.3" font-family="Times,serif" font-size="14.00">aws_lb_target_group.asg</text>
</g>
<!-- [root] aws_autoscaling_group.example (expand)&#45;&gt;[root] aws_lb_target_group.asg (expand) -->
<g id="edge2" class="edge">
<title>[root] aws_autoscaling_group.example (expand)&#45;&gt;[root] aws_lb_target_group.asg (expand)</title>
<path fill="none" stroke="black" d="M289.83,-287.88C306.2,-278.64 326.58,-267.13 344.15,-257.21"/>
<polygon fill="black" stroke="black" points="346.06,-260.15 353.05,-252.19 342.62,-254.06 346.06,-260.15"/>
</g>
<!-- [root] data.aws_subnets.default (expand) -->
<g id="node9" class="node">
<title>[root] data.aws_subnets.default (expand)</title>
<polygon fill="none" stroke="black" points="639.5,-180 487.5,-180 487.5,-144 639.5,-144 639.5,-180"/>
<text text-anchor="middle" x="563.5" y="-158.3" font-family="Times,serif" font-size="14.00">data.aws_subnets.default</text>
</g>
<!-- [root] aws_autoscaling_group.example (expand)&#45;&gt;[root] data.aws_subnets.default (expand) -->
<g id="edge3" class="edge">
<title>[root] aws_autoscaling_group.example (expand)&#45;&gt;[root] data.aws_subnets.default (expand)</title>
<path fill="none" stroke="black" d="M356.66,-290.95C393.25,-282.99 434.26,-270.73 468.5,-252 470.57,-250.87 510.5,-213.22 537.92,-187.25"/>
<polygon fill="black" stroke="black" points="540.43,-189.7 545.28,-180.28 535.62,-184.62 540.43,-189.7"/>
</g>
<!-- [root] aws_security_group.instance (expand) -->
<g id="node8" class="node">
<title>[root] aws_security_group.instance (expand)</title>
<polygon fill="none" stroke="black" points="281,-180 106,-180 106,-144 281,-144 281,-180"/>
<text text-anchor="middle" x="193.5" y="-158.3" font-family="Times,serif" font-size="14.00">aws_security_group.instance</text>
</g>
<!-- [root] aws_launch_configuration.example (expand)&#45;&gt;[root] aws_security_group.instance (expand) -->
<g id="edge4" class="edge">
<title>[root] aws_launch_configuration.example (expand)&#45;&gt;[root] aws_security_group.instance (expand)</title>
<path fill="none" stroke="black" d="M186.72,-215.7C187.72,-207.98 188.91,-198.71 190.01,-190.11"/>
<polygon fill="black" stroke="black" points="193.5,-190.47 191.3,-180.1 186.55,-189.58 193.5,-190.47"/>
</g>
<!-- [root] aws_lb.example (expand) -->
<g id="node3" class="node">
<title>[root] aws_lb.example (expand)</title>
<polygon fill="none" stroke="black" points="620.5,-252 516.5,-252 516.5,-216 620.5,-216 620.5,-252"/>
<text text-anchor="middle" x="568.5" y="-230.3" font-family="Times,serif" font-size="14.00">aws_lb.example</text>
</g>
<!-- [root] aws_security_group.alb (expand) -->
<g id="node7" class="node">
<title>[root] aws_security_group.alb (expand)</title>
<polygon fill="none" stroke="black" points="805,-180 658,-180 658,-144 805,-144 805,-180"/>
<text text-anchor="middle" x="731.5" y="-158.3" font-family="Times,serif" font-size="14.00">aws_security_group.alb</text>
</g>
<!-- [root] aws_lb.example (expand)&#45;&gt;[root] aws_security_group.alb (expand) -->
<g id="edge5" class="edge">
<title>[root] aws_lb.example (expand)&#45;&gt;[root] aws_security_group.alb (expand)</title>
<path fill="none" stroke="black" d="M608.37,-215.88C630.66,-206.31 658.62,-194.3 682.26,-184.15"/>
<polygon fill="black" stroke="black" points="683.95,-187.23 691.76,-180.07 681.19,-180.8 683.95,-187.23"/>
</g>
<!-- [root] aws_lb.example (expand)&#45;&gt;[root] data.aws_subnets.default (expand) -->
<g id="edge6" class="edge">
<title>[root] aws_lb.example (expand)&#45;&gt;[root] data.aws_subnets.default (expand)</title>
<path fill="none" stroke="black" d="M567.26,-215.7C566.71,-207.98 566.05,-198.71 565.44,-190.11"/>
<polygon fill="black" stroke="black" points="568.93,-189.83 564.72,-180.1 561.94,-190.33 568.93,-189.83"/>
</g>
<!-- [root] var.alb_name -->
<g id="node12" class="node">
<title>[root] var.alb_name</title>
<polygon fill="none" stroke="black" points="463.5,-180 379.5,-180 379.5,-144 469.5,-144 469.5,-174 463.5,-180"/>
<polyline fill="none" stroke="black" points="463.5,-180 463.5,-174 "/>
<polyline fill="none" stroke="black" points="469.5,-174 463.5,-174 "/>
<text text-anchor="middle" x="424.5" y="-158.3" font-family="Times,serif" font-size="14.00">var.alb_name</text>
</g>
<!-- [root] aws_lb.example (expand)&#45;&gt;[root] var.alb_name -->
<g id="edge7" class="edge">
<title>[root] aws_lb.example (expand)&#45;&gt;[root] var.alb_name</title>
<path fill="none" stroke="black" d="M533.27,-215.88C513.92,-206.47 489.73,-194.71 469.07,-184.67"/>
<polygon fill="black" stroke="black" points="470.39,-181.41 459.86,-180.19 467.33,-187.71 470.39,-181.41"/>
</g>
<!-- [root] aws_lb_listener.http (expand) -->
<g id="node4" class="node">
<title>[root] aws_lb_listener.http (expand)</title>
<polygon fill="none" stroke="black" points="564,-324 439,-324 439,-288 564,-288 564,-324"/>
<text text-anchor="middle" x="501.5" y="-302.3" font-family="Times,serif" font-size="14.00">aws_lb_listener.http</text>
</g>
<!-- [root] aws_lb_listener.http (expand)&#45;&gt;[root] aws_lb.example (expand) -->
<g id="edge8" class="edge">
<title>[root] aws_lb_listener.http (expand)&#45;&gt;[root] aws_lb.example (expand)</title>
<path fill="none" stroke="black" d="M518.06,-287.7C526.18,-279.22 536.09,-268.86 544.97,-259.58"/>
<polygon fill="black" stroke="black" points="547.74,-261.75 552.13,-252.1 542.69,-256.91 547.74,-261.75"/>
</g>
<!-- [root] aws_lb_listener_rule.asg (expand) -->
<g id="node5" class="node">
<title>[root] aws_lb_listener_rule.asg (expand)</title>
<polygon fill="none" stroke="black" points="454.5,-396 302.5,-396 302.5,-360 454.5,-360 454.5,-396"/>
<text text-anchor="middle" x="378.5" y="-374.3" font-family="Times,serif" font-size="14.00">aws_lb_listener_rule.asg</text>
</g>
<!-- [root] aws_lb_listener_rule.asg (expand)&#45;&gt;[root] aws_lb_listener.http (expand) -->
<g id="edge9" class="edge">
<title>[root] aws_lb_listener_rule.asg (expand)&#45;&gt;[root] aws_lb_listener.http (expand)</title>
<path fill="none" stroke="black" d="M408.59,-359.88C424.82,-350.64 445.04,-339.13 462.47,-329.21"/>
<polygon fill="black" stroke="black" points="464.34,-332.18 471.3,-324.19 460.87,-326.09 464.34,-332.18"/>
</g>
<!-- [root] aws_lb_listener_rule.asg (expand)&#45;&gt;[root] aws_lb_target_group.asg (expand) -->
<g id="edge10" class="edge">
<title>[root] aws_lb_listener_rule.asg (expand)&#45;&gt;[root] aws_lb_target_group.asg (expand)</title>
<path fill="none" stroke="black" d="M379.1,-359.87C379.96,-335.67 381.52,-291.21 382.54,-262.39"/>
<polygon fill="black" stroke="black" points="386.04,-262.31 382.89,-252.19 379.04,-262.06 386.04,-262.31"/>
</g>
<!-- [root] data.aws_vpc.default (expand) -->
<g id="node10" class="node">
<title>[root] data.aws_vpc.default (expand)</title>
<polygon fill="none" stroke="black" points="549,-108 418,-108 418,-72 549,-72 549,-108"/>
<text text-anchor="middle" x="483.5" y="-86.3" font-family="Times,serif" font-size="14.00">data.aws_vpc.default</text>
</g>
<!-- [root] aws_lb_target_group.asg (expand)&#45;&gt;[root] data.aws_vpc.default (expand) -->
<g id="edge11" class="edge">
<title>[root] aws_lb_target_group.asg (expand)&#45;&gt;[root] data.aws_vpc.default (expand)</title>
<path fill="none" stroke="black" d="M374.65,-215.85C366.19,-196.8 356.6,-165.88 370.5,-144 379.5,-129.84 393.39,-119.4 408.39,-111.72"/>
<polygon fill="black" stroke="black" points="410.28,-114.7 417.85,-107.28 407.31,-108.36 410.28,-114.7"/>
</g>
<!-- [root] aws_lb_target_group.asg (expand)&#45;&gt;[root] var.alb_name -->
<g id="edge12" class="edge">
<title>[root] aws_lb_target_group.asg (expand)&#45;&gt;[root] var.alb_name</title>
<path fill="none" stroke="black" d="M393.63,-215.7C398.35,-207.64 404.06,-197.89 409.28,-188.98"/>
<polygon fill="black" stroke="black" points="412.45,-190.5 414.48,-180.1 406.41,-186.96 412.45,-190.5"/>
</g>
<!-- [root] var.server_port -->
<g id="node15" class="node">
<title>[root] var.server_port</title>
<polygon fill="none" stroke="black" points="357.5,-108 263.5,-108 263.5,-72 363.5,-72 363.5,-102 357.5,-108"/>
<polyline fill="none" stroke="black" points="357.5,-108 357.5,-102 "/>
<polyline fill="none" stroke="black" points="363.5,-102 357.5,-102 "/>
<text text-anchor="middle" x="313.5" y="-86.3" font-family="Times,serif" font-size="14.00">var.server_port</text>
</g>
<!-- [root] aws_lb_target_group.asg (expand)&#45;&gt;[root] var.server_port -->
<g id="edge13" class="edge">
<title>[root] aws_lb_target_group.asg (expand)&#45;&gt;[root] var.server_port</title>
<path fill="none" stroke="black" d="M365.08,-215.9C355.61,-206.19 344.6,-193.34 337.5,-180 327.19,-160.63 321.04,-136.48 317.55,-118.23"/>
<polygon fill="black" stroke="black" points="320.97,-117.49 315.79,-108.24 314.08,-118.7 320.97,-117.49"/>
</g>
<!-- [root] provider[&quot;registry.terraform.io/hashicorp/aws&quot;] -->
<g id="node11" class="node">
<title>[root] provider[&quot;registry.terraform.io/hashicorp/aws&quot;]</title>
<polygon fill="none" stroke="black" points="483.5,-36 228.79,-18 483.5,0 738.21,-18 483.5,-36"/>
<text text-anchor="middle" x="483.5" y="-14.3" font-family="Times,serif" font-size="14.00">provider[&quot;registry.terraform.io/hashicorp/aws&quot;]</text>
</g>
<!-- [root] aws_security_group.alb (expand)&#45;&gt;[root] provider[&quot;registry.terraform.io/hashicorp/aws&quot;] -->
<g id="edge14" class="edge">
<title>[root] aws_security_group.alb (expand)&#45;&gt;[root] provider[&quot;registry.terraform.io/hashicorp/aws&quot;]</title>
<path fill="none" stroke="black" d="M699.1,-143.89C679.92,-133.67 655.21,-120.3 633.5,-108 593.27,-85.2 547.67,-57.93 517.41,-39.64"/>
<polygon fill="black" stroke="black" points="518.9,-36.45 508.53,-34.27 515.28,-42.44 518.9,-36.45"/>
</g>
<!-- [root] var.alb_security_group_name -->
<g id="node13" class="node">
<title>[root] var.alb_security_group_name</title>
<polygon fill="none" stroke="black" points="815,-108 642,-108 642,-72 821,-72 821,-102 815,-108"/>
<polyline fill="none" stroke="black" points="815,-108 815,-102 "/>
<polyline fill="none" stroke="black" points="821,-102 815,-102 "/>
<text text-anchor="middle" x="731.5" y="-86.3" font-family="Times,serif" font-size="14.00">var.alb_security_group_name</text>
</g>
<!-- [root] aws_security_group.alb (expand)&#45;&gt;[root] var.alb_security_group_name -->
<g id="edge15" class="edge">
<title>[root] aws_security_group.alb (expand)&#45;&gt;[root] var.alb_security_group_name</title>
<path fill="none" stroke="black" d="M731.5,-143.7C731.5,-135.98 731.5,-126.71 731.5,-118.11"/>
<polygon fill="black" stroke="black" points="735,-118.1 731.5,-108.1 728,-118.1 735,-118.1"/>
</g>
<!-- [root] aws_security_group.instance (expand)&#45;&gt;[root] provider[&quot;registry.terraform.io/hashicorp/aws&quot;] -->
<g id="edge16" class="edge">
<title>[root] aws_security_group.instance (expand)&#45;&gt;[root] provider[&quot;registry.terraform.io/hashicorp/aws&quot;]</title>
<path fill="none" stroke="black" d="M200.62,-143.69C209.93,-123.3 228.19,-89.95 254.5,-72 285.78,-50.66 324.46,-37.83 361.07,-30.14"/>
<polygon fill="black" stroke="black" points="362.21,-33.48 371.34,-28.11 360.85,-26.62 362.21,-33.48"/>
</g>
<!-- [root] var.instance_security_group_name -->
<g id="node14" class="node">
<title>[root] var.instance_security_group_name</title>
<polygon fill="none" stroke="black" points="201,-108 0,-108 0,-72 207,-72 207,-102 201,-108"/>
<polyline fill="none" stroke="black" points="201,-108 201,-102 "/>
<polyline fill="none" stroke="black" points="207,-102 201,-102 "/>
<text text-anchor="middle" x="103.5" y="-86.3" font-family="Times,serif" font-size="14.00">var.instance_security_group_name</text>
</g>
<!-- [root] aws_security_group.instance (expand)&#45;&gt;[root] var.instance_security_group_name -->
<g id="edge17" class="edge">
<title>[root] aws_security_group.instance (expand)&#45;&gt;[root] var.instance_security_group_name</title>
<path fill="none" stroke="black" d="M171.25,-143.7C159.92,-134.88 145.97,-124.03 133.68,-114.47"/>
<polygon fill="black" stroke="black" points="135.53,-111.48 125.49,-108.1 131.24,-117.01 135.53,-111.48"/>
</g>
<!-- [root] aws_security_group.instance (expand)&#45;&gt;[root] var.server_port -->
<g id="edge18" class="edge">
<title>[root] aws_security_group.instance (expand)&#45;&gt;[root] var.server_port</title>
<path fill="none" stroke="black" d="M222.86,-143.88C238.55,-134.72 258.06,-123.34 274.95,-113.48"/>
<polygon fill="black" stroke="black" points="277.16,-116.25 284.03,-108.19 273.63,-110.21 277.16,-116.25"/>
</g>
<!-- [root] data.aws_subnets.default (expand)&#45;&gt;[root] data.aws_vpc.default (expand) -->
<g id="edge19" class="edge">
<title>[root] data.aws_subnets.default (expand)&#45;&gt;[root] data.aws_vpc.default (expand)</title>
<path fill="none" stroke="black" d="M543.72,-143.7C533.75,-134.97 521.49,-124.24 510.64,-114.75"/>
<polygon fill="black" stroke="black" points="512.88,-112.06 503.05,-108.1 508.27,-117.32 512.88,-112.06"/>
</g>
<!-- [root] data.aws_vpc.default (expand)&#45;&gt;[root] provider[&quot;registry.terraform.io/hashicorp/aws&quot;] -->
<g id="edge20" class="edge">
<title>[root] data.aws_vpc.default (expand)&#45;&gt;[root] provider[&quot;registry.terraform.io/hashicorp/aws&quot;]</title>
<path fill="none" stroke="black" d="M483.5,-71.7C483.5,-63.98 483.5,-54.71 483.5,-46.11"/>
<polygon fill="black" stroke="black" points="487,-46.1 483.5,-36.1 480,-46.1 487,-46.1"/>
</g>
<!-- [root] output.alb_dns_mame (expand) -->
<g id="node16" class="node">
<title>[root] output.alb_dns_mame (expand)</title>
<ellipse fill="none" stroke="black" cx="618.5" cy="-378" rx="145.67" ry="18"/>
<text text-anchor="middle" x="618.5" y="-374.3" font-family="Times,serif" font-size="14.00">[root] output.alb_dns_mame (expand)</text>
</g>
<!-- [root] output.alb_dns_mame (expand)&#45;&gt;[root] aws_lb.example (expand) -->
<g id="edge21" class="edge">
<title>[root] output.alb_dns_mame (expand)&#45;&gt;[root] aws_lb.example (expand)</title>
<path fill="none" stroke="black" d="M612.47,-359.87C603.87,-335.46 588.02,-290.43 577.88,-261.64"/>
<polygon fill="black" stroke="black" points="581.18,-260.46 574.55,-252.19 574.57,-262.78 581.18,-260.46"/>
</g>
<!-- [root] provider[&quot;registry.terraform.io/hashicorp/aws&quot;] (close) -->
<g id="node17" class="node">
<title>[root] provider[&quot;registry.terraform.io/hashicorp/aws&quot;] (close)</title>
<ellipse fill="none" stroke="black" cx="361.5" cy="-450" rx="228.56" ry="18"/>
<text text-anchor="middle" x="361.5" y="-446.3" font-family="Times,serif" font-size="14.00">[root] provider[&quot;registry.terraform.io/hashicorp/aws&quot;] (close)</text>
</g>
<!-- [root] provider[&quot;registry.terraform.io/hashicorp/aws&quot;] (close)&#45;&gt;[root] aws_autoscaling_group.example (expand) -->
<g id="edge22" class="edge">
<title>[root] provider[&quot;registry.terraform.io/hashicorp/aws&quot;] (close)&#45;&gt;[root] aws_autoscaling_group.example (expand)</title>
<path fill="none" stroke="black" d="M333.02,-432.01C319.53,-422.78 304.09,-410.32 293.5,-396 279.72,-377.37 270.84,-352.49 265.63,-333.77"/>
<polygon fill="black" stroke="black" points="269.01,-332.87 263.1,-324.08 262.24,-334.64 269.01,-332.87"/>
</g>
<!-- [root] provider[&quot;registry.terraform.io/hashicorp/aws&quot;] (close)&#45;&gt;[root] aws_lb_listener_rule.asg (expand) -->
<g id="edge23" class="edge">
<title>[root] provider[&quot;registry.terraform.io/hashicorp/aws&quot;] (close)&#45;&gt;[root] aws_lb_listener_rule.asg (expand)</title>
<path fill="none" stroke="black" d="M365.7,-431.7C367.6,-423.9 369.88,-414.51 371.98,-405.83"/>
<polygon fill="black" stroke="black" points="375.39,-406.65 374.35,-396.1 368.58,-405 375.39,-406.65"/>
</g>
<!-- [root] root -->
<g id="node18" class="node">
<title>[root] root</title>
<ellipse fill="none" stroke="black" cx="489.5" cy="-522" rx="47.39" ry="18"/>
<text text-anchor="middle" x="489.5" y="-518.3" font-family="Times,serif" font-size="14.00">[root] root</text>
</g>
<!-- [root] root&#45;&gt;[root] output.alb_dns_mame (expand) -->
<g id="edge24" class="edge">
<title>[root] root&#45;&gt;[root] output.alb_dns_mame (expand)</title>
<path fill="none" stroke="black" d="M528.41,-511.67C552.41,-503.91 581.88,-490.42 599.5,-468 613.19,-450.58 617.58,-425.53 618.76,-406.44"/>
<polygon fill="black" stroke="black" points="622.26,-406.39 619.12,-396.27 615.27,-406.14 622.26,-406.39"/>
</g>
<!-- [root] root&#45;&gt;[root] provider[&quot;registry.terraform.io/hashicorp/aws&quot;] (close) -->
<g id="edge25" class="edge">
<title>[root] root&#45;&gt;[root] provider[&quot;registry.terraform.io/hashicorp/aws&quot;] (close)</title>
<path fill="none" stroke="black" d="M463.6,-506.83C445.73,-497.06 421.64,-483.89 401.35,-472.79"/>
<polygon fill="black" stroke="black" points="402.78,-469.59 392.33,-467.86 399.42,-475.73 402.78,-469.59"/>
</g>
</g>
</svg>
